<svg width="259" height="259" viewBox="0 0 259 259" fill="none" xmlns="http://www.w3.org/2000/svg">
<g clip-path="url(#clip0_597_4909)">
<path fill-rule="evenodd" clip-rule="evenodd" d="M73.0087 89.2061C43.58 97.023 40.4337 170.085 105.978 170.193C156.438 170.265 193.02 126.672 163.795 81.9407C161.845 78.9554 156.617 108.317 117.977 106.063C94.2787 104.672 93.6566 121.996 98.2025 101.207C117.738 97.6105 124.892 76.9772 119.819 61.3433C107.103 22.1508 35.5888 51.716 73.0087 89.2061ZM62.924 88.8944C51.2841 83.6791 51.2123 86.1489 38.5915 77.2409C29.8586 70.551 28.4828 64.7243 42.6349 63.4175C48.0889 62.9413 53.4733 61.8596 58.6891 60.1924C58.8087 59.8447 58.9164 59.509 59.048 59.1733C61.8093 52.3441 66.8953 46.716 73.4035 43.2877C79.9487 39.635 87.3519 37.8091 94.841 38.0005C107.462 38.3961 119.544 44.8702 124.401 59.8207C124.9 61.3479 125.299 62.9057 125.598 64.4845C127.092 72.5828 125.96 80.948 122.368 88.3549C119.793 93.685 115.808 98.2051 110.847 101.423C113.309 101.191 115.785 101.155 118.252 101.315C144.918 102.886 153.854 87.8513 157.371 81.9287C158.129 80.3345 159.238 78.9328 160.613 77.8284C163.496 75.9341 165.829 76.3058 167.791 79.351C175.531 91.1963 178.976 103.054 178.964 114.227C178.947 123.837 176.334 133.262 171.403 141.503C166.382 149.819 159.528 156.873 151.366 162.124C137.79 170.773 121.992 175.264 105.907 175.048C81.7895 175.048 66.154 165.673 57.2655 153.024C52.7366 146.457 49.8183 138.911 48.748 131C47.6573 123.624 48.126 116.1 50.1237 108.916C52.5163 100.596 56.8947 93.4383 62.9359 88.8944H62.924Z" fill="black"/>
<path fill-rule="evenodd" clip-rule="evenodd" d="M73.0083 89.2057C43.5796 97.0227 40.4334 170.085 105.978 170.192C156.438 170.264 193.02 126.672 163.795 81.9403C161.845 78.955 156.617 108.316 117.977 106.062C94.2784 104.672 93.6563 121.996 98.2022 101.207C117.738 97.6101 124.891 76.9768 119.819 61.3429C107.103 22.1504 35.5884 51.7157 73.0083 89.2057Z" fill="#F9C450"/>
<path fill-rule="evenodd" clip-rule="evenodd" d="M88.0347 57.1826C86.7802 57.1826 85.5538 57.5556 84.5109 58.2543C83.468 58.9531 82.6554 59.9462 82.1758 61.108C81.6963 62.2698 81.5714 63.548 81.817 64.7809C82.0627 66.0139 82.6677 67.1461 83.5556 68.0343C84.4435 68.9224 85.5744 69.5267 86.8051 69.7705C88.0358 70.0143 89.311 69.8868 90.4693 69.404C91.6276 68.9212 92.617 68.1049 93.3123 67.0584C94.0075 66.0119 94.3774 64.7821 94.375 63.5249C94.375 62.691 94.2109 61.8653 93.8921 61.095C93.5734 60.3248 93.1061 59.6251 92.5172 59.036C91.9283 58.4469 91.2293 57.98 90.4601 57.662C89.6909 57.3439 88.8667 57.1811 88.0347 57.1826Z" fill="black"/>
<path fill-rule="evenodd" clip-rule="evenodd" d="M62.6365 84.1224C60.3396 77.8161 56.6551 71.354 58.2701 64.0166C52.1503 65.6478 45.9156 66.8101 39.6199 67.4935C37.4427 67.7692 36.5335 67.8771 36.8445 68.5725C40.6487 77.1927 54.2146 80.4897 62.6365 84.1584V84.1224Z" fill="#E0501E"/>
<path fill-rule="evenodd" clip-rule="evenodd" d="M119.114 151.178C139.307 148.936 154.153 133.661 142.382 115.654C141.604 114.455 139.475 126.288 123.947 125.365C63.9411 121.768 90.7739 154.307 119.162 151.178H119.114Z" fill="#E0501E"/>
<path d="M118.923 149.427C124.728 148.868 130.324 146.959 135.264 143.852C138.329 141.923 140.885 139.283 142.717 136.155C144.387 133.201 145.082 129.794 144.703 126.42C144.365 123.734 143.516 121.137 142.203 118.771C140.025 122.14 135.228 127.787 123.84 127.163C105.656 126.096 95.8105 128.362 91.6952 131.767C91.0012 132.27 90.4512 132.946 90.1005 133.729C89.7499 134.512 89.6108 135.373 89.6974 136.227C90.1505 138.324 91.2766 140.215 92.9035 141.61C98.1074 146.682 108.455 150.65 118.923 149.475V149.427ZM137.178 146.79C131.785 150.194 125.673 152.292 119.33 152.916C107.726 154.199 96.3249 149.751 90.487 144.068C88.2854 142.125 86.7949 139.5 86.2521 136.611C86.0673 135.182 86.2633 133.729 86.8201 132.4C87.3769 131.071 88.2747 129.914 89.4223 129.046C94.2075 125.065 104.854 122.488 124.043 123.615C134.881 124.322 138.53 118.136 139.966 115.726C140.24 115.114 140.649 114.573 141.162 114.143C141.36 113.958 141.6 113.823 141.861 113.751C142.122 113.68 142.397 113.672 142.661 113.73C142.926 113.788 143.173 113.909 143.38 114.083C143.588 114.257 143.75 114.48 143.853 114.731C146.168 118.112 147.652 121.994 148.184 126.06C148.644 130.155 147.807 134.291 145.791 137.882C143.682 141.508 140.731 144.572 137.19 146.814L137.178 146.79Z" fill="black"/>
</g>
<g clip-path="url(#clip1_597_4909)">
<path d="M193.157 151.895C194.896 148.754 196.479 145.516 197.889 142.182C203.222 129.572 205.927 116.188 205.927 102.401C205.927 88.6147 203.223 75.231 197.889 62.6212C192.741 50.4509 185.376 39.5252 175.998 30.1468C166.619 20.7684 155.693 13.4032 143.523 8.25557C130.914 2.92271 117.53 0.218262 103.744 0.218262C89.9573 0.218262 76.5727 2.92271 63.9633 8.25645C51.7931 13.404 40.8674 20.7693 31.489 30.1477C22.111 39.5261 14.7453 50.4518 9.59776 62.622C4.26402 75.2319 1.55957 88.6156 1.55957 102.402C1.55957 116.188 4.26358 129.572 9.59732 142.182C14.7449 154.353 22.1101 165.278 31.4885 174.656C40.8669 184.035 51.7927 191.4 63.9629 196.548C76.5727 201.881 89.9569 204.586 103.743 204.586C117.529 204.586 130.913 201.882 143.523 196.548C145.636 195.654 147.709 194.689 149.745 193.662L206.999 250.916C212.071 255.988 218.814 258.781 225.986 258.781C233.159 258.781 239.902 255.988 244.974 250.916L249.589 246.302C260.058 235.832 260.058 218.797 249.589 208.327L193.157 151.895ZM152.617 170.06C147.38 173.85 141.686 177.046 135.633 179.551C125.807 183.617 115.038 185.866 103.743 185.866C57.6473 185.866 20.2797 148.498 20.2797 102.402C20.2797 56.306 57.6473 18.9383 103.743 18.9383C149.839 18.9383 187.207 56.3064 187.207 102.402C187.207 115.133 184.352 127.196 179.254 137.992C176.495 143.836 173.079 149.308 169.099 154.312C164.351 160.281 158.803 165.583 152.617 170.06ZM236.352 233.065L231.737 237.679C230.149 239.268 228.068 240.061 225.987 240.061C223.906 240.061 221.825 239.267 220.236 237.679L165.996 183.439C169.497 180.743 172.837 177.817 175.998 174.656C178.254 172.401 180.39 170.053 182.41 167.622L236.352 221.564C239.527 224.74 239.527 229.889 236.352 233.065Z" fill="black"/>
<path d="M225.987 259C218.756 259 211.958 256.184 206.844 251.071L149.703 193.929C147.672 194.949 145.622 195.898 143.608 196.749C130.972 202.094 117.56 204.804 103.743 204.804C89.9282 204.804 76.5152 202.094 63.8779 196.749C51.6823 191.591 40.733 184.21 31.334 174.811C21.9351 165.412 14.5546 154.463 9.39605 142.267C4.05139 129.63 1.34082 116.218 1.34082 102.402C1.34082 88.5865 4.05095 75.174 9.39605 62.537C14.5541 50.3415 21.9351 39.3921 31.334 29.9932C40.733 20.5947 51.6819 13.2137 63.8779 8.05523C76.5148 2.71013 89.9269 0 103.743 0C117.559 0 130.971 2.71013 143.608 8.05523C155.805 13.2137 166.754 20.5947 176.152 29.9932C185.551 39.3913 192.932 50.3406 198.09 62.537C203.435 75.1731 206.146 88.5857 206.146 102.402C206.146 116.217 203.436 129.63 198.09 142.267C196.723 145.5 195.154 148.726 193.427 151.856L249.744 208.173C260.298 218.728 260.298 235.902 249.744 246.457L245.129 251.071C240.016 256.184 233.218 259 225.987 259ZM149.788 193.396L207.153 250.762C212.184 255.793 218.872 258.563 225.987 258.563C233.101 258.563 239.789 255.793 244.82 250.762L249.435 246.148C259.819 235.763 259.819 218.866 249.435 208.482L192.886 151.933L192.966 151.789C194.717 148.627 196.305 145.366 197.688 142.097C203.01 129.513 205.709 116.158 205.709 102.402C205.709 88.6446 203.01 75.2893 197.688 62.707C192.551 50.5626 185.202 39.66 175.844 30.3017C166.486 20.9434 155.583 13.5939 143.439 8.45725C130.855 3.13574 117.5 0.436977 103.743 0.436977C89.9864 0.436977 76.631 3.13574 64.0483 8.45768C51.9043 13.5939 41.0017 20.9434 31.643 30.3021C22.2842 39.6609 14.9347 50.5639 9.7985 62.7075C4.47656 75.2902 1.77823 88.6455 1.77823 102.402C1.77823 116.16 4.47656 129.515 9.7985 142.097C14.9347 154.241 22.2842 165.143 31.643 174.502C41.0021 183.861 51.9047 191.211 64.0483 196.346C76.6315 201.669 89.9868 204.367 103.743 204.367C117.501 204.367 130.856 201.668 143.438 196.346C145.49 195.479 147.579 194.51 149.647 193.467L149.788 193.396ZM225.987 240.28C223.756 240.28 221.659 239.411 220.081 237.834L165.665 183.418L165.863 183.266C169.374 180.562 172.732 177.613 175.843 174.502C178.063 172.282 180.216 169.921 182.242 167.483L182.395 167.299L236.506 221.41C239.762 224.665 239.762 229.963 236.506 233.219L231.891 237.834C230.314 239.411 228.217 240.28 225.987 240.28ZM166.326 183.461L220.391 237.525C221.886 239.02 223.873 239.843 225.987 239.843C228.101 239.843 230.088 239.02 231.583 237.525L236.198 232.911C239.283 229.825 239.283 224.804 236.198 221.719L182.424 167.947C180.435 170.329 178.326 172.638 176.152 174.811C173.086 177.877 169.781 180.787 166.326 183.461ZM103.742 186.084C57.5998 186.084 20.0605 148.545 20.0605 102.402C20.0605 56.2594 57.5998 18.7201 103.743 18.7201C149.886 18.7201 187.425 56.2599 187.425 102.402C187.425 114.874 184.742 126.88 179.451 138.086C176.707 143.9 173.281 149.405 169.27 154.448C164.505 160.438 158.945 165.75 152.745 170.237C147.456 174.064 141.727 177.265 135.716 179.753C125.565 183.954 114.807 186.084 103.742 186.084ZM103.743 19.1571C57.8415 19.1571 20.4974 56.5006 20.4974 102.402C20.4974 148.304 57.841 185.647 103.742 185.647C114.749 185.647 125.451 183.528 135.549 179.349C141.529 176.875 147.228 173.69 152.488 169.883C158.656 165.42 164.187 160.135 168.928 154.176C172.918 149.16 176.326 143.683 179.056 137.899C184.32 126.753 186.988 114.81 186.988 102.402C186.988 56.5006 149.644 19.1571 103.743 19.1571Z" fill="black"/>
</g>
<defs>
<clipPath id="clip0_597_4909">
<rect width="147" height="137" fill="white" transform="translate(32 38)"/>
</clipPath>
<clipPath id="clip1_597_4909">
<rect width="259" height="259" fill="white"/>
</clipPath>
</defs>
</svg>
